<svg xmlns="http://www.w3.org/2000/svg" viewBox="0 0 1280 280" width="1280" height="280" role="img" aria-label="Madhav Chauhan">
  <defs>
    <linearGradient id="bg" x1="0" y1="0" x2="1" y2="1">
      <stop offset="0%" stop-color="#08080c"/>
      <stop offset="100%" stop-color="#16162a"/>
    </linearGradient>
    <linearGradient id="accent" x1="0" y1="0" x2="1" y2="0">
      <stop offset="0%" stop-color="#7c3aed" stop-opacity="0"/>
      <stop offset="50%" stop-color="#7c3aed" stop-opacity="1"/>
      <stop offset="100%" stop-color="#7c3aed" stop-opacity="0"/>
    </linearGradient>
    <pattern id="dots" x="0" y="0" width="24" height="24" patternUnits="userSpaceOnUse">
      <circle cx="2" cy="2" r="1" fill="#fafafa" fill-opacity="0.06"/>
    </pattern>
  </defs>

  <rect width="1280" height="280" fill="url(#bg)"/>
  <rect width="1280" height="280" fill="url(#dots)"/>

  <text x="80" y="120" font-family="ui-monospace, 'SF Mono', Menlo, Consolas, monospace" font-size="56" font-weight="700" fill="#fafafa" letter-spacing="-1">madhav chauhan</text>
  <text x="80" y="158" font-family="ui-monospace, 'SF Mono', Menlo, Consolas, monospace" font-size="18" fill="#d1d5db">ai software engineer  ·  silicon valley</text>
  <text x="80" y="184" font-family="ui-monospace, 'SF Mono', Menlo, Consolas, monospace" font-size="14" fill="#9ca3af">university of texas (dallas)  ·  class of ’26 alum</text>

  <circle cx="86" cy="220" r="4" fill="#22c55e"/>
  <text x="100" y="225" font-family="ui-monospace, 'SF Mono', Menlo, Consolas, monospace" font-size="13" fill="#22c55e">open to swe / ml new-grad roles  ·  looking to contribute to open source</text>

  <g transform="translate(820, 50)" font-family="ui-monospace, 'SF Mono', Menlo, Consolas, monospace" font-size="11">
    <g>
      <rect x="0" y="0" width="380" height="32" fill="#1a1a2e" stroke="#2a2a44" stroke-width="0.5" rx="4"/>
      <text x="14" y="20" fill="#9ca3af">data</text>
      <rect x="60" y="6" width="62" height="20" fill="#7c3aed" fill-opacity="0.18" rx="3"/>
      <text x="68" y="20" fill="#a78bfa">postgres</text>
      <rect x="130" y="6" width="52" height="20" fill="#7c3aed" fill-opacity="0.18" rx="3"/>
      <text x="138" y="20" fill="#a78bfa">qdrant</text>
      <rect x="190" y="6" width="56" height="20" fill="#7c3aed" fill-opacity="0.18" rx="3"/>
      <text x="198" y="20" fill="#a78bfa">postgis</text>
      <rect x="254" y="6" width="52" height="20" fill="#7c3aed" fill-opacity="0.18" rx="3"/>
      <text x="262" y="20" fill="#a78bfa">sqlite</text>
    </g>

    <g transform="translate(0, 42)">
      <rect x="0" y="0" width="380" height="32" fill="#1a1a2e" stroke="#2a2a44" stroke-width="0.5" rx="4"/>
      <text x="14" y="20" fill="#9ca3af">infra</text>
      <rect x="60" y="6" width="62" height="20" fill="#7c3aed" fill-opacity="0.18" rx="3"/>
      <text x="68" y="20" fill="#a78bfa">fastapi</text>
      <rect x="130" y="6" width="52" height="20" fill="#7c3aed" fill-opacity="0.18" rx="3"/>
      <text x="138" y="20" fill="#a78bfa">celery</text>
      <rect x="190" y="6" width="56" height="20" fill="#7c3aed" fill-opacity="0.18" rx="3"/>
      <text x="198" y="20" fill="#a78bfa">docker</text>
      <rect x="254" y="6" width="52" height="20" fill="#7c3aed" fill-opacity="0.18" rx="3"/>
      <text x="262" y="20" fill="#a78bfa">aws</text>
    </g>

    <g transform="translate(0, 84)">
      <rect x="0" y="0" width="380" height="32" fill="#1a1a2e" stroke="#2a2a44" stroke-width="0.5" rx="4"/>
      <text x="14" y="20" fill="#9ca3af">ml</text>
      <rect x="60" y="6" width="62" height="20" fill="#7c3aed" fill-opacity="0.18" rx="3"/>
      <text x="68" y="20" fill="#a78bfa">tribe v2</text>
      <rect x="130" y="6" width="52" height="20" fill="#7c3aed" fill-opacity="0.18" rx="3"/>
      <text x="138" y="20" fill="#a78bfa">storm</text>
      <rect x="190" y="6" width="56" height="20" fill="#7c3aed" fill-opacity="0.18" rx="3"/>
      <text x="198" y="20" fill="#a78bfa">yolo</text>
      <rect x="254" y="6" width="52" height="20" fill="#7c3aed" fill-opacity="0.18" rx="3"/>
      <text x="262" y="20" fill="#a78bfa">vlm</text>
    </g>

    <g transform="translate(0, 126)">
      <rect x="0" y="0" width="380" height="32" fill="#1a1a2e" stroke="#2a2a44" stroke-width="0.5" rx="4"/>
      <text x="14" y="20" fill="#9ca3af">ui</text>
      <rect x="60" y="6" width="62" height="20" fill="#7c3aed" fill-opacity="0.18" rx="3"/>
      <text x="68" y="20" fill="#a78bfa">next.js</text>
      <rect x="130" y="6" width="52" height="20" fill="#7c3aed" fill-opacity="0.18" rx="3"/>
      <text x="138" y="20" fill="#a78bfa">swiftui</text>
      <rect x="190" y="6" width="56" height="20" fill="#7c3aed" fill-opacity="0.18" rx="3"/>
      <text x="198" y="20" fill="#a78bfa">compose</text>
      <rect x="254" y="6" width="52" height="20" fill="#7c3aed" fill-opacity="0.18" rx="3"/>
      <text x="262" y="20" fill="#a78bfa">niivue</text>
    </g>
  </g>

  <rect x="0" y="277" width="1280" height="3" fill="url(#accent)"/>
</svg>
